<?xml version="1.0" encoding="UTF-8"?>
<svg id="Layer_1" data-name="Layer 1" xmlns="http://www.w3.org/2000/svg" xmlns:xlink="http://www.w3.org/1999/xlink" viewBox="0 0 181.35 127.59">
  <defs>
    <style>
      .cls-1 {
        fill: #fff;
      }

      .cls-2 {
        fill: none;
      }

      .cls-3 {
        fill: url(#linear-gradient);
      }

      .cls-4 {
        clip-path: url(#clippath);
      }
    </style>
    <clipPath id="clippath">
      <path class="cls-2" d="M90.07,91.45c-3.58,1.86-6.98,4.06-10.61,5.84-5.03,2.47-10.23,4.32-15.92,4.42-.21,0-.42-.03-.62,0-.18.03-.39,0-.6-.03-.39-.05-.76-.11-.85.21-.17.6.67.82,1.13,1.09,6.76,4.01,14.07,5.68,21.9,5.12.61-.04,1.22-.18,1.83-.24.23-.02.53-.04.62.27.08.28-.14.46-.33.61-.19.15-.39.31-.62.39-3.05,1.12-6.25,1.84-9.46,1.93-8.21.24-16.38-.31-24.41-2.21-.27-.06-.61-.28-.79.05-.22.41.22.55.44.75.15.14.34.23.51.34,5.86,3.87,11.93,7.34,18.42,10.03,7.16,2.96,14.49,5.1,22.4,4.49,7.06-.55,12.77-3.63,17.38-8.88,2.65-3.02,4.29-6.67,6.28-10.11,1.75-3.03,3.27-6.39,7.11-7.49.62-.18.5-.58.06-.88-.81-.57-1.61-1.15-2.45-1.67-2.82-1.75-5.66-1.68-8.55-.12-2.71,1.47-4.64,3.8-6.78,5.9-.68.67-1.36,1.32-2.21,1.77-.25.13-.54.33-.77.02-.17-.22-.02-.47.09-.69.42-.76.89-1.49,1.25-2.28,1.74-3.78.45-7.69-3.2-9.41-1.57-.74-3.12-1.07-4.66-1.07-2.25,0-4.46.7-6.61,1.81"/>
    </clipPath>
    <linearGradient id="linear-gradient" x1="753.7" y1="400.98" x2="754.7" y2="400.98" gradientTransform="translate(-55002.53 29396.89) scale(73.04 -73.04)" gradientUnits="userSpaceOnUse">
      <stop offset="0" stop-color="#c0963b"/>
      <stop offset=".2" stop-color="#d7b66a"/>
      <stop offset=".5" stop-color="#feeab6"/>
      <stop offset=".8" stop-color="#d7b66a"/>
      <stop offset="1" stop-color="#c0963b"/>
    </linearGradient>
  </defs>
  <g class="cls-4">
    <rect class="cls-3" x="51.12" y="89.64" width="73.4" height="35.51"/>
  </g>
  <path class="cls-1" d="M38.47,3.71c-6.48-1.29-12.89-1.02-19.07,1.52-3.46,1.42-6.41,3.56-8.46,6.77-.73,1.15-1.39,2.35-1.06,3.89.64-.15.8-.61,1.04-.97,1.73-2.67,4.1-4.61,6.95-5.96,7.43-3.54,15.13-4.02,23.01-1.85,8.54,2.36,14.7,7.46,17.77,15.9,2.55,6.99,1.8,13.94-.62,20.82-3.57,10.13-10.2,16.94-20.9,19.42-7.43,1.72-14.95,1.84-22.51,1.51-.18,0-.42.01-.51-.25,2.59-3.8,4.3-8.04,6.07-12.25,2.85-6.76,4.98-13.79,7.72-20.58,2.81-6.96,6.18-13.59,12.05-18.58.2-.17.55-.34.35-.68-.16-.27-.51-.24-.8-.22-1.92.13-3.73.65-5.45,1.5-5.92,2.93-10,7.69-13.14,13.36-1.96,3.55-3.19,7.41-4.69,11.15-3.66,9.12-6.76,18.49-11.63,27.1-.83,1.47-.45,1.93,1.47,1.93,7.42,0,14.85-.01,22.27-.05,6.92-.03,13.71-.8,20.32-3.05,22.33-7.59,25.25-34.24,12.88-47.68-6.29-6.83-14.05-10.93-23.07-12.73"/>
  <path class="cls-1" d="M93.03,60.97c-1.81,1.9-3.95,3.34-6.58,3.94-3.65.83-6.38-.64-7.53-4.2-.99-3.08-.97-6.26-.54-9.42,1.05-7.66,4.08-14.38,9.7-19.78,2.08-2,4.45-3.54,7.42-3.87,2.67-.3,4.66.79,5.82,3.22,1.05,2.22,1.19,4.6,1.25,7.6-.53,8.2-3.39,16.05-9.55,22.5M95.9,25.49c-6.71.14-12.33,2.88-16.9,7.63-6.14,6.38-9.49,13.92-8.54,22.96.61,5.75,4.32,9.67,9.96,10.82,2.84.58,5.67.43,8.47-.2,11.83-2.68,21.15-14.57,21.26-27.07.08-9.17-5.09-14.33-14.25-14.14"/>
  <path class="cls-1" d="M166.27,39.72c-3.02,3.42-6.92,5.4-11.18,6.75-1.45.46-2.95.73-4.43,1.12-.55.14-.89.15-.74-.58,1.33-6.77,4.03-12.79,9.43-17.34,1.04-.88,2.24-1.53,3.54-1.99,3.8-1.32,6.62.7,6.58,5.21-.12,2.37-1.35,4.74-3.2,6.84M171.7,26.01c-2.73-.95-5.51-.92-8.3-.39-13.5,2.59-23.13,15.29-21.87,29.02.45,4.94,2.49,9.05,7.26,11.29,2.21,1.04,4.57,1.32,7.02,1.39,5.86-.13,10.74-2.41,14.56-6.92.8-.95,1.46-2,1.81-3.21.09-.3.21-.7-.09-.93-.33-.24-.64.06-.87.27-.43.39-.82.81-1.21,1.24-2.44,2.74-5.14,5.13-8.67,6.39-5.05,1.8-9.15-.16-10.91-5.21-.9-2.57-1.09-5.23-.97-7.93.04-.82.29-1.18,1.19-1.34,5.77-1.05,11.43-2.5,16.7-5.18,3.38-1.72,6.49-3.8,8.49-7.15,2.8-4.7,1.02-9.54-4.13-11.34"/>
  <path class="cls-1" d="M139.55,26.36c-.3-.27-.66-.62-1.09-.38-.39.22-.2.68-.18,1.03.13,2.81.09,5.62-.7,8.34-2.44,8.45-7.24,15.45-13.47,21.55-.66.65-1.38,1.25-2.07,1.88-.08-.06-.17-.12-.25-.18.09-.98.19-1.96.27-2.94.48-5.88.74-11.76-.12-17.64-.83-5.7-3.74-9.66-9.4-11.34-.38-.11-.82-.42-1.15-.07-.32.34-.04.78.09,1.16.72,2.01,1.58,3.98,2.04,6.08,1.49,6.71,1.37,13.51,1.1,20.31-.15,3.79-.44,7.57-.59,11.36-.08,1.98.32,2.19,2.16,1.34,1.96-.91,3.69-2.18,5.34-3.54,6.02-4.97,11.12-10.78,15.38-17.32,2.39-3.68,4.41-7.55,5.2-11.92.55-3.01-.22-5.64-2.56-7.71"/>
</svg>