<svg width="24" height="24" viewBox="0 0 24 24" fill="none" xmlns="http://www.w3.org/2000/svg">
<path fill-rule="evenodd" clip-rule="evenodd" d="M12 1.38281e-06C18.627 1.67249e-06 24 5.373 24 12C24 18.627 18.627 24 12 24C5.373 24 -1.67249e-06 18.627 -1.38281e-06 12C-1.09314e-06 5.373 5.373 1.09314e-06 12 1.38281e-06ZM5.25 9.23864C5.25 7.03875 7.03875 5.25 9.23863 5.25L14.7614 5.25C16.9612 5.25 18.75 7.03875 18.75 9.23864L18.75 14.7614C18.75 16.9612 16.9612 18.75 14.7614 18.75L9.23864 18.75C7.03875 18.75 5.25 16.9612 5.25 14.7614L5.25 9.23864ZM15.6818 7.70455C16.0193 7.70455 16.2955 7.98068 16.2955 8.31818C16.2955 8.65568 16.0193 8.93182 15.6818 8.93182C15.3443 8.93182 15.0682 8.65568 15.0682 8.31818C15.0682 7.98068 15.3443 7.70455 15.6818 7.70455ZM12 8.625C13.8624 8.625 15.375 10.1376 15.375 12C15.375 13.8624 13.8624 15.375 12 15.375C10.1376 15.375 8.625 13.8624 8.625 12C8.625 10.1376 10.1376 8.625 12 8.625ZM9.23864 12C9.23864 10.4782 10.4782 9.23864 12 9.23864C13.5218 9.23864 14.7614 10.4782 14.7614 12C14.7614 13.5218 13.5218 14.7614 12 14.7614C10.4782 14.7614 9.23864 13.5218 9.23864 12Z" fill="white"/>
</svg>
