<svg width="24" height="24" viewBox="0 0 24 24" fill="none" xmlns="http://www.w3.org/2000/svg">
    <path fill-rule="evenodd" clip-rule="evenodd"
          d="M12 1.38281e-06C18.627 1.67249e-06 24 5.373 24 12C24 18.627 18.627 24 12 24C5.373 24 2.34861e-07 18.627 5.24537e-07 12C8.14212e-07 5.373 5.373 1.09314e-06 12 1.38281e-06ZM5 11.04C5 7.15942 8.14147 4 12 4C15.8585 4 19 7.15942 19 11.04L19 11.68L19 13.6C19 14.3072 18.4305 14.88 17.7273 14.88L16.4545 14.88L16.4545 11.68C16.4545 10.9857 17.0045 10.4241 17.69 10.4037C17.3762 7.51646 14.9565 5.28 12 5.28C9.04347 5.28 6.62384 7.51646 6.31001 10.4037C6.99548 10.4241 7.54545 10.9857 7.54545 11.68L7.54545 14.88L6.27273 14.88C5.56954 14.88 5 14.3072 5 13.6L5 13.1725L5 11.04ZM16.4545 16.8L16.4545 16.16L17.7273 16.16L17.7273 16.8C17.7273 18.2063 16.5801 19.36 15.1818 19.36L13.1012 19.36C12.9896 19.5544 12.8291 19.7159 12.6358 19.8283C12.4425 19.9406 12.2232 19.9998 12 20C11.6625 20 11.3387 19.8651 11.1 19.6251C10.8614 19.385 10.7273 19.0595 10.7273 18.72C10.7273 18.3805 10.8614 18.055 11.1 17.8149C11.3387 17.5749 11.6625 17.44 12 17.44C12.223 17.4404 12.442 17.4997 12.6351 17.6121C12.8281 17.7244 12.9885 17.8857 13.1 18.08L15.1818 18.08C15.8924 18.08 16.4545 17.5147 16.4545 16.8Z"
          fill="white"/>
</svg>
