<svg width="24" height="24" viewBox="0 0 24 24" fill="none" xmlns="http://www.w3.org/2000/svg">
    <path d="M12 1.38281e-06C18.627 1.67249e-06 24 5.373 24 12C24 18.627 18.627 24 12 24C5.373 24 2.34861e-07 18.627 5.24537e-07 12C8.14212e-07 5.373 5.373 1.09314e-06 12 1.38281e-06ZM7.293 12.707L13.293 18.707C13.488 18.902 13.744 19 14 19C14.256 19 14.512 18.902 14.707 18.707C15.098 18.316 15.098 17.684 14.707 17.293L9.414 12L14.707 6.707C15.098 6.316 15.098 5.684 14.707 5.293C14.316 4.902 13.684 4.902 13.293 5.293L7.293 11.293C6.902 11.684 6.902 12.316 7.293 12.707Z"
          fill="white"/>
</svg>
